<svg version="1.1" xmlns="http://www.w3.org/2000/svg" viewBox="0 0 250 250"><desc>Created with Snap</desc><defs></defs><g transform="matrix(0.0345,0,0,0.0345,40.6532,130.4545)"><rect x="-1177.3227673340805" y="-2932.51110005283" width="7240.044595441258" height="5549.096115543879" fill="#f2d398" style=""></rect><g transform="matrix(16.6568,0,0,16.6568,-888.6669,-3489.3295)">
<g id="gSku8rfrvdpf">
	<g>
		<path d="M201.21243,348.1283c-10.49316,0-20.94092-0.78418-31.23291-2.37207
			c-45.83106-7.06934-85.31641-28.95801-114.188-63.30078l0,0c-19.96777-23.75195-36.14941-53.38672-45.56494-83.44531
			c-9.9082-31.6333-11.77832-61.13428-5.4082-85.31397c6.92285-26.27734,23.61719-45.02197,48.27783-54.20703
			c57.13867-21.28027,86.83985,6.06152,115.56251,32.50439c6.1084,5.62354,12.4248,11.43799,18.95068,16.75293
			c27.20117,22.15284,50.9082,14.73486,78.36035,6.14551c17.17383-5.37305,34.92383-10.93262,55.42676-9.97949
			c54.07617,2.51025,71.06934,29.24317,75.80273,51.22706c5.5791,25.91162-2.82129,60.30322-23.04785,94.35596
			c-19.3125,32.51367-46.77734,60.03027-73.4668,73.60645C269.6055,339.90857,235.17679,348.1283,201.21243,348.1283z
			 M59.61868,279.23865c28.08057,33.40137,66.50635,54.69434,111.12305,61.57617
			c42.57764,6.56641,87.92139-0.9502,127.67529-21.16992c25.88184-13.16406,52.58594-39.96875,71.43555-71.70312
			c19.58984-32.98047,27.77539-66.05762,22.45898-90.74951c-2.95117-13.70654-9.9541-24.65137-20.81445-32.53028
			c-12.13281-8.80371-29.06738-13.76758-50.33301-14.75439c-19.60645-0.91602-36.94141,4.51221-53.70215,9.75635
			c-27.62988,8.64503-53.72656,16.80714-83.00977-7.04053c-6.64355-5.41064-13.0166-11.27734-19.18018-16.95166
			c-28.88477-26.59131-56.16749-51.70752-110.43067-31.49707c-23.40088,8.71582-38.604,25.80566-45.1875,50.79541
			c-6.13037,23.26807-4.28223,51.81153,5.34424,82.54591C24.22024,226.95837,40.06692,255.98083,59.61868,279.23865z" fill="#292929" style=""></path>
	</g>
</g>


<desc>Created with Snap</desc><defs></defs></g><g><g transform="matrix(0.5,0,0,-0.5,0,0)"><path d="M410 2L410 1073Q410 1102 405 1115Q401 1128 401 1139Q401 1154 417 1164Q433 1174 455 1174Q506 1174 537 1147Q569 1121 569 1083L569 414Q608 421 654 438Q701 455 747 483Q794 512 837 553Q881 594 914 649Q948 704 968 773Q989 843 989 930Q989 988 969 1050Q950 1112 909 1163Q868 1214 803 1247Q739 1280 649 1280Q531 1280 445 1241Q359 1202 303 1136Q247 1071 220 987Q193 903 193 813Q193 745 204 698Q216 652 230 622Q244 593 256 579Q268 565 270 563Q287 568 294 559Q301 550 301 535Q301 521 291 493Q282 465 266 440Q250 416 229 403Q208 391 186 408Q174 419 149 448Q124 477 99 525Q75 574 56 642Q37 711 37 801Q37 943 81 1059Q125 1176 205 1259Q286 1343 398 1388Q510 1434 647 1434Q759 1434 851 1397Q943 1360 1009 1293Q1075 1227 1111 1135Q1147 1043 1147 934Q1147 829 1116 737Q1086 645 1033 569Q980 493 909 434Q839 375 758 338Q809 309 842 267Q876 226 899 178Q923 131 940 79Q958 27 976 -24Q994 -74 1017 -121Q1040 -168 1075 -205Q1079 -210 1085 -213Q1092 -215 1098 -218Q1105 -220 1109 -224Q1114 -227 1114 -233Q1114 -248 1097 -267Q1080 -285 1057 -302Q1034 -318 1010 -329Q987 -340 975 -340Q960 -340 948 -328Q898 -271 870 -210Q842 -148 823 -88Q804 -27 788 30Q772 87 746 135Q721 183 680 219Q639 255 569 274L569 -10Q569 -36 552 -47Q535 -57 512 -57Q494 -57 476 -52Q458 -47 443 -39Q429 -31 419 -21Q410 -10 410 2ZM1704 596Q1704 539 1684 479Q1665 419 1626 365Q1588 312 1531 269Q1475 227 1401 205Q1411 179 1427 155Q1444 132 1467 115Q1490 98 1520 88Q1551 78 1591 78Q1651 78 1694 100Q1737 123 1766 160Q1796 197 1814 243Q1832 289 1841 336Q1848 370 1869 381Q1891 393 1913 387Q1936 381 1952 361Q1969 342 1966 315Q1962 284 1952 244Q1943 204 1924 163Q1905 122 1875 82Q1846 43 1803 12Q1760 -19 1702 -38Q1644 -57 1569 -57Q1499 -57 1433 -30Q1368 -2 1317 49Q1267 101 1236 176Q1206 252 1206 348Q1206 445 1233 528Q1260 612 1304 673Q1348 734 1404 768Q1460 803 1519 803Q1562 803 1596 788Q1631 773 1655 745Q1679 718 1691 680Q1704 642 1704 596ZM1374 354Q1374 345 1375 336Q1376 327 1376 317Q1414 335 1445 363Q1476 391 1498 427Q1520 463 1532 505Q1544 548 1544 594Q1544 628 1532 647Q1521 666 1501 666Q1476 666 1456 649Q1437 632 1422 604Q1408 577 1398 542Q1389 508 1383 473Q1377 438 1375 406Q1373 375 1374 354ZM2168 -57Q2100 -57 2036 -32Q1972 -7 1922 42Q1873 91 1843 163Q1814 235 1814 330Q1814 418 1839 503Q1864 588 1908 654Q1952 721 2013 762Q2075 803 2148 803Q2201 803 2238 781Q2275 760 2298 729Q2321 699 2331 664Q2342 629 2342 602Q2342 582 2331 566Q2321 550 2306 539Q2291 528 2273 522Q2255 517 2241 518Q2227 519 2218 528Q2210 537 2213 555Q2209 568 2205 587Q2202 606 2193 623Q2185 641 2170 653Q2155 666 2129 666Q2101 666 2074 639Q2048 613 2027 567Q2007 521 1994 460Q1982 399 1982 330Q1982 269 1997 222Q2013 175 2041 143Q2069 111 2107 94Q2146 78 2191 78Q2251 78 2295 100Q2340 123 2371 160Q2402 197 2421 243Q2440 289 2449 336Q2456 370 2477 381Q2499 393 2521 387Q2544 381 2560 361Q2577 342 2574 315Q2570 284 2559 244Q2549 204 2529 163Q2509 122 2478 82Q2448 43 2404 12Q2360 -19 2301 -38Q2243 -57 2168 -57ZM2557 985Q2532 985 2509 995Q2487 1005 2470 1022Q2454 1039 2444 1061Q2434 1084 2434 1110Q2434 1137 2444 1160Q2454 1183 2470 1199Q2487 1216 2509 1225Q2532 1235 2557 1235Q2584 1235 2607 1225Q2630 1216 2646 1199Q2663 1183 2672 1160Q2682 1137 2682 1110Q2682 1084 2672 1061Q2663 1039 2646 1022Q2630 1005 2607 995Q2584 985 2557 985ZM2604 692L2604 172Q2604 165 2605 149Q2606 134 2611 118Q2616 102 2627 90Q2638 78 2658 78Q2688 78 2710 100Q2733 122 2749 155Q2766 188 2777 226Q2788 265 2795 299Q2801 330 2813 344Q2826 358 2840 359Q2855 361 2869 352Q2884 343 2895 328Q2907 314 2912 296Q2918 278 2914 262Q2900 211 2877 155Q2855 99 2820 52Q2785 5 2736 -26Q2687 -57 2621 -57Q2580 -57 2548 -42Q2516 -26 2494 0Q2472 26 2460 61Q2449 96 2449 135L2449 682Q2449 711 2444 724Q2440 737 2440 748Q2440 763 2456 772Q2472 782 2494 782Q2545 782 2574 755Q2604 729 2604 692ZM3057 -78Q3019 -78 2995 -70Q2971 -61 2958 -47L2958 -713Q2958 -741 2947 -759Q2936 -776 2919 -786Q2903 -796 2884 -800Q2865 -803 2850 -803Q2819 -803 2811 -787Q2803 -771 2803 -748L2803 682Q2803 704 2799 717Q2796 730 2792 737Q2789 745 2785 749Q2782 754 2782 760Q2782 765 2788 769Q2794 773 2804 776Q2814 779 2825 780Q2837 782 2848 782Q2897 782 2926 755Q2956 729 2958 694Q2990 741 3035 772Q3080 803 3145 803Q3205 803 3249 775Q3294 747 3323 698Q3353 650 3367 584Q3382 518 3382 442Q3382 356 3367 277Q3352 199 3329 143Q3380 146 3413 157Q3446 168 3468 187Q3491 207 3507 235Q3524 263 3542 299Q3556 328 3565 341Q3575 354 3589 354Q3602 354 3615 346Q3629 338 3639 326Q3650 314 3656 300Q3663 287 3663 276Q3663 241 3639 196Q3615 151 3565 111Q3516 71 3440 43Q3365 16 3263 16Q3221 -29 3166 -54Q3111 -78 3057 -78ZM3093 666Q3071 666 3050 653Q3030 640 3012 617Q2994 595 2980 563Q2967 531 2958 494L2958 51Q2980 83 3030 100Q3080 117 3151 123Q3169 150 3182 187Q3196 225 3205 265Q3214 305 3218 343Q3223 381 3223 410Q3223 480 3212 529Q3202 578 3184 608Q3166 639 3142 652Q3119 666 3093 666ZM4013 596Q4013 539 3993 479Q3974 419 3935 365Q3897 312 3840 269Q3784 227 3710 205Q3720 179 3736 155Q3753 132 3776 115Q3799 98 3829 88Q3860 78 3900 78Q3960 78 4003 100Q4046 123 4075 160Q4105 197 4123 243Q4141 289 4150 336Q4157 370 4178 381Q4200 393 4222 387Q4245 381 4261 361Q4278 342 4275 315Q4271 284 4261 244Q4252 204 4233 163Q4214 122 4184 82Q4155 43 4112 12Q4069 -19 4011 -38Q3953 -57 3878 -57Q3808 -57 3742 -30Q3677 -2 3626 49Q3576 101 3545 176Q3515 252 3515 348Q3515 445 3542 528Q3569 612 3613 673Q3657 734 3713 768Q3769 803 3828 803Q3871 803 3905 788Q3940 773 3964 745Q3988 718 4000 680Q4013 642 4013 596ZM3683 354Q3683 345 3684 336Q3685 327 3685 317Q3723 335 3754 363Q3785 391 3807 427Q3829 463 3841 505Q3853 548 3853 594Q3853 628 3841 647Q3830 666 3810 666Q3785 666 3765 649Q3746 632 3731 604Q3717 577 3707 542Q3698 508 3692 473Q3686 438 3684 406Q3682 375 3683 354ZM4879 696Q4879 756 4873 821L4834 821Q4770 821 4714 839Q4658 857 4616 891Q4575 925 4551 972Q4527 1020 4527 1079Q4527 1119 4540 1154Q4554 1190 4578 1216Q4603 1243 4637 1258Q4671 1274 4713 1274Q4769 1274 4813 1253Q4858 1232 4892 1196Q4926 1161 4951 1113Q4976 1066 4993 1012Q5009 1021 5023 1034Q5037 1047 5051 1063Q5060 1090 5075 1090Q5086 1090 5097 1080Q5109 1071 5119 1055Q5129 1039 5135 1019Q5141 1000 5141 979Q5141 941 5109 910Q5077 880 5026 858Q5032 815 5035 774Q5039 733 5039 696Q5039 502 5000 360Q4961 218 4896 125Q4831 33 4747 -12Q4664 -57 4574 -57Q4462 -57 4377 -5Q4292 48 4234 139Q4177 230 4148 351Q4119 473 4119 610Q4119 784 4149 915Q4180 1047 4226 1142Q4273 1237 4328 1300Q4383 1363 4430 1401Q4478 1439 4511 1455Q4545 1471 4549 1473Q4554 1475 4559 1476Q4565 1477 4572 1477Q4589 1477 4602 1466Q4615 1456 4624 1440Q4633 1425 4638 1406Q4643 1387 4643 1370Q4643 1350 4637 1336Q4631 1323 4617 1323Q4610 1323 4606 1325Q4588 1315 4557 1296Q4527 1277 4491 1243Q4455 1210 4418 1159Q4381 1108 4351 1034Q4321 961 4302 861Q4283 762 4283 631Q4283 492 4309 391Q4335 290 4377 224Q4419 159 4472 127Q4525 96 4580 96Q4644 96 4698 136Q4753 176 4792 252Q4832 329 4855 440Q4878 552 4879 696ZM4828 963L4852 963Q4844 998 4833 1028Q4822 1058 4806 1079Q4790 1101 4770 1113Q4751 1126 4727 1126Q4696 1126 4686 1109Q4676 1092 4676 1075Q4676 1057 4684 1037Q4693 1017 4711 1000Q4730 984 4759 973Q4788 963 4828 963ZM5192 143L5192 682Q5192 711 5187 724Q5183 737 5183 748Q5183 763 5199 772Q5215 782 5237 782Q5288 782 5317 755Q5347 729 5347 692L5347 141Q5347 112 5356 95Q5365 78 5392 78Q5430 78 5468 103Q5507 129 5537 177Q5568 226 5587 296Q5607 366 5607 455Q5607 517 5597 558Q5588 599 5575 624Q5562 650 5547 663Q5533 676 5523 684Q5515 690 5505 691Q5495 693 5495 702Q5495 716 5502 733Q5510 751 5522 766Q5534 782 5549 792Q5564 803 5579 803Q5610 803 5642 772Q5674 742 5700 692Q5727 642 5744 578Q5761 515 5761 449Q5761 345 5733 253Q5705 161 5653 92Q5602 23 5529 -17Q5456 -57 5366 -57Q5317 -57 5283 -41Q5250 -25 5230 2Q5210 29 5201 65Q5192 102 5192 143ZM6329 596Q6329 539 6309 479Q6290 419 6251 365Q6213 312 6156 269Q6100 227 6026 205Q6036 179 6052 155Q6069 132 6092 115Q6115 98 6145 88Q6176 78 6216 78Q6276 78 6319 100Q6362 123 6391 160Q6421 197 6439 243Q6457 289 6466 336Q6473 370 6494 381Q6516 393 6538 387Q6561 381 6577 361Q6594 342 6591 315Q6587 284 6577 244Q6568 204 6549 163Q6530 122 6500 82Q6471 43 6428 12Q6385 -19 6327 -38Q6269 -57 6194 -57Q6124 -57 6058 -30Q5993 -2 5942 49Q5892 101 5861 176Q5831 252 5831 348Q5831 445 5858 528Q5885 612 5929 673Q5973 734 6029 768Q6085 803 6144 803Q6187 803 6221 788Q6256 773 6280 745Q6304 718 6316 680Q6329 642 6329 596ZM5999 354Q5999 345 6000 336Q6001 327 6001 317Q6039 335 6070 363Q6101 391 6123 427Q6145 463 6157 505Q6169 548 6169 594Q6169 628 6157 647Q6146 666 6126 666Q6101 666 6081 649Q6062 632 6047 604Q6033 577 6023 542Q6014 508 6008 473Q6002 438 6000 406Q5998 375 5999 354ZM6912 -57Q6876 -57 6838 -46Q6801 -35 6770 -8Q6740 19 6720 63Q6701 108 6701 176Q6701 275 6727 385Q6754 496 6804 629L6648 629L6625 629Q6624 599 6621 553Q6619 507 6613 455Q6607 403 6597 350Q6588 297 6574 252Q6564 220 6542 215Q6521 210 6500 222Q6479 235 6466 259Q6453 283 6460 309Q6468 340 6474 384Q6480 429 6483 478Q6487 528 6489 577Q6491 627 6492 666Q6454 687 6429 719Q6404 752 6404 797Q6404 818 6412 835Q6421 853 6435 865Q6449 878 6468 884Q6487 891 6507 891Q6525 891 6544 886Q6564 881 6581 868Q6599 855 6613 834Q6627 813 6636 782Q6661 779 6678 777Q6696 776 6708 775Q6720 774 6728 774Q6736 774 6744 774L6851 774Q6860 774 6877 763Q6895 752 6912 734Q6929 717 6940 697Q6952 677 6949 659Q6949 653 6942 630Q6935 607 6925 572Q6915 537 6903 491Q6891 446 6881 396Q6871 346 6864 292Q6857 239 6857 188Q6857 167 6862 147Q6867 127 6877 111Q6887 96 6902 87Q6918 78 6939 78Q6974 78 6999 100Q7024 122 7041 155Q7058 188 7068 226Q7079 265 7086 299Q7092 331 7106 345Q7120 360 7135 360Q7147 360 7160 352Q7173 345 7183 333Q7194 321 7200 306Q7207 291 7207 276Q7207 271 7206 268Q7205 265 7205 262Q7191 211 7168 155Q7146 99 7111 52Q7076 5 7027 -26Q6978 -57 6912 -57ZM7486 586L7250 600L7250 555Q7320 470 7376 380Q7433 291 7472 192Q7512 93 7533 -17Q7555 -127 7555 -254Q7555 -382 7535 -491Q7516 -599 7480 -678Q7445 -756 7394 -800Q7344 -844 7283 -844Q7229 -844 7193 -818Q7157 -791 7135 -748Q7114 -704 7104 -649Q7095 -594 7095 -537L7095 565Q7092 568 7088 572Q7085 576 7082 580Q7058 604 7038 624Q7019 645 7019 670Q7019 685 7030 700Q7041 716 7066 719Q7071 719 7078 720Q7085 721 7095 721L7095 1303Q7095 1325 7091 1338Q7088 1351 7084 1358Q7081 1366 7077 1370Q7074 1375 7074 1380Q7074 1386 7080 1390Q7086 1394 7096 1397Q7106 1400 7117 1401Q7129 1403 7140 1403Q7191 1403 7220 1376Q7250 1350 7250 1313L7250 733Q7286 736 7322 738Q7358 741 7392 743Q7426 746 7454 747Q7483 748 7504 748Q7538 748 7563 735Q7588 722 7588 690Q7588 679 7585 658Q7583 637 7578 615Q7574 593 7566 577Q7559 561 7549 561Q7544 561 7541 564Q7539 568 7533 572Q7528 576 7517 580Q7507 584 7486 586ZM7400 -254Q7400 -184 7390 -110Q7381 -35 7362 41Q7343 118 7315 193Q7287 269 7250 340L7250 -537Q7250 -561 7252 -589Q7254 -617 7259 -640Q7265 -663 7274 -679Q7284 -694 7299 -694Q7321 -694 7340 -662Q7359 -630 7372 -572Q7385 -513 7392 -433Q7400 -352 7400 -254ZM7799 1190L7799 606Q7810 627 7820 662Q7831 698 7840 741Q7850 784 7858 831Q7866 878 7872 923Q7878 968 7881 1007Q7885 1047 7885 1075Q7885 1177 7870 1224Q7855 1272 7830 1272Q7822 1272 7816 1264Q7810 1256 7806 1243Q7802 1231 7800 1216Q7799 1202 7799 1190ZM8090 297Q8096 327 8108 340Q8121 354 8135 355Q8150 357 8165 348Q8180 340 8191 326Q8202 312 8207 294Q8213 277 8209 260Q8195 219 8169 164Q8143 109 8103 60Q8063 11 8009 -23Q7955 -57 7885 -57Q7826 -57 7781 -38Q7736 -18 7705 17Q7675 53 7659 102Q7644 152 7644 213L7644 1145Q7644 1202 7658 1250Q7673 1299 7698 1333Q7724 1368 7758 1387Q7792 1407 7830 1407Q7875 1407 7906 1390Q7937 1374 7957 1347Q7977 1320 7988 1285Q8000 1250 8005 1213Q8010 1177 8011 1141Q8012 1106 8012 1077Q8012 1002 7998 919Q7984 837 7962 757Q7941 677 7915 603Q7890 530 7866 473Q7843 416 7824 380Q7806 344 7799 338L7799 219Q7799 157 7825 117Q7851 78 7908 78Q7943 78 7973 99Q8004 121 8027 153Q8051 186 8067 224Q8083 263 8090 297ZM8844 338Q8846 350 8857 358Q8869 366 8884 369Q8899 372 8915 369Q8932 366 8944 355Q8957 345 8962 326Q8968 308 8961 279Q8952 237 8931 200Q8911 164 8880 136Q8849 108 8807 92Q8765 76 8713 76Q8685 76 8660 79Q8636 82 8613 90Q8575 24 8515 -17Q8455 -57 8367 -57Q8289 -57 8233 -27Q8177 4 8140 56Q8103 109 8085 178Q8068 247 8068 324Q8068 437 8094 526Q8121 616 8156 678Q8191 741 8225 774Q8260 807 8277 807Q8297 807 8313 789Q8330 772 8337 748Q8345 725 8341 701Q8338 677 8318 664Q8306 645 8289 620Q8273 595 8258 557Q8244 520 8234 466Q8224 412 8224 336Q8224 271 8235 223Q8247 175 8267 142Q8288 110 8314 94Q8341 78 8371 78Q8415 78 8443 99Q8472 121 8492 156Q8420 218 8382 313Q8345 409 8345 520Q8345 568 8355 611Q8366 655 8386 688Q8407 721 8438 740Q8469 760 8510 760Q8546 760 8578 734Q8610 708 8634 662Q8658 616 8671 553Q8685 490 8685 416Q8685 359 8678 303Q8671 247 8656 195Q8667 191 8676 190Q8686 190 8697 190Q8730 190 8755 202Q8781 214 8799 234Q8817 254 8828 281Q8839 308 8844 338ZM8453 528Q8453 459 8474 397Q8496 335 8531 289Q8537 338 8537 383Q8537 435 8535 479Q8534 524 8528 556Q8523 588 8513 606Q8504 625 8488 625Q8453 625 8453 528ZM9203 223L9203 682Q9203 711 9199 724Q9195 737 9195 748Q9195 763 9210 772Q9226 782 9248 782Q9299 782 9329 755Q9359 729 9359 692L9359 223Q9360 191 9364 164Q9369 137 9380 118Q9391 99 9410 88Q9429 78 9459 78Q9488 78 9507 89Q9527 101 9539 121Q9551 141 9556 167Q9561 194 9561 223L9561 682Q9561 711 9557 724Q9553 737 9553 748Q9553 763 9569 772Q9585 782 9607 782Q9658 782 9687 755Q9717 729 9717 692L9717 223Q9717 175 9707 125Q9698 76 9671 35Q9644 -5 9595 -31Q9546 -57 9467 -57Q9434 -57 9405 -49Q9376 -41 9352 -28Q9328 -14 9310 3Q9292 21 9281 41Q9271 21 9251 3Q9232 -14 9207 -28Q9182 -41 9153 -49Q9124 -57 9095 -57Q9038 -57 8997 -44Q8957 -31 8929 -9Q8901 14 8884 43Q8868 72 8859 103Q8850 134 8847 166Q8845 198 8845 225L8845 682Q8845 711 8840 724Q8836 737 8836 748Q8836 763 8852 772Q8868 782 8890 782Q8941 782 8970 755Q9000 729 9000 692L9000 223Q9000 196 9003 169Q9007 143 9017 123Q9028 103 9048 90Q9068 78 9101 78Q9130 78 9149 89Q9169 101 9181 121Q9193 141 9198 167Q9203 194 9203 223Z" fill="#292929" style=""></path></g></g></g></svg>